<svg xmlns="http://www.w3.org/2000/svg" xmlns:xlink="http://www.w3.org/1999/xlink" width="1080" zoomAndPan="magnify" viewBox="0 0 810 809.999993" height="1080" preserveAspectRatio="xMidYMid meet" version="1.0"><defs><g/></defs><g fill="#00cb82" fill-opacity="1"><g transform="translate(80.062499, 543.937032)"><g><path d="M 318 -183.035156 C 310.605469 -186.734375 303.210938 -190.894531 294.890625 -192.742188 C 276.402344 -196.902344 257.449219 -196.902344 238.039062 -194.589844 C 204.757812 -191.355469 171.019531 -187.195312 137.277344 -183.960938 C 133.578125 -183.496094 129.882812 -183.960938 125.257812 -183.960938 C 140.511719 -244.972656 154.839844 -304.132812 169.632812 -364.222656 C 193.664062 -367.917969 216.3125 -371.617188 239.425781 -374.390625 C 271.78125 -378.085938 303.671875 -381.324219 336.027344 -384.558594 C 371.15625 -387.792969 406.28125 -392.417969 440.484375 -379.9375 C 445.109375 -378.550781 450.65625 -379.472656 455.277344 -380.398438 C 458.050781 -380.859375 460.359375 -383.632812 464.519531 -386.40625 C 459.898438 -390.105469 457.589844 -392.878906 454.816406 -393.804688 C 442.796875 -397.5 430.78125 -402.585938 418.300781 -403.972656 C 400.273438 -406.28125 381.785156 -407.207031 363.757812 -406.28125 C 314.304688 -403.972656 265.308594 -400.273438 215.851562 -397.039062 C 203.835938 -396.113281 191.355469 -394.265625 177.027344 -394.726562 C 178.414062 -403.972656 179.800781 -411.367188 181.1875 -418.761719 C 182.109375 -424.308594 183.035156 -429.855469 183.496094 -435.402344 C 183.960938 -441.871094 179.335938 -445.570312 172.867188 -445.109375 C 167.320312 -444.183594 163.160156 -441.871094 160.847656 -437.25 C 158.074219 -430.78125 155.300781 -424.308594 152.992188 -417.835938 C 149.292969 -407.667969 146.058594 -397.960938 142.359375 -387.792969 C 135.425781 -386.40625 129.417969 -384.558594 123.410156 -383.171875 C 106.308594 -378.550781 89.207031 -374.851562 72.105469 -369.304688 C 61.011719 -366.070312 49.917969 -360.984375 39.289062 -355.902344 C 36.050781 -354.515625 34.203125 -350.355469 31.429688 -347.121094 C 43.910156 -340.1875 43.910156 -340.1875 55.925781 -342.496094 C 78.113281 -347.121094 100.300781 -351.742188 122.023438 -355.902344 C 125.257812 -356.363281 128.496094 -355.902344 132.191406 -355.902344 C 130.804688 -337.414062 94.289062 -190.429688 86.894531 -174.714844 C 75.339844 -171.019531 63.324219 -167.78125 51.304688 -163.621094 C 43.910156 -161.3125 36.976562 -158.074219 30.042969 -154.839844 C 26.347656 -152.992188 22.1875 -149.292969 24.035156 -145.132812 C 25.421875 -141.898438 30.042969 -139.125 33.742188 -138.199219 C 39.75 -135.425781 45.757812 -137.738281 51.765625 -140.511719 C 61.011719 -144.210938 70.71875 -148.371094 82.273438 -146.058594 C 81.347656 -140.972656 80.886719 -137.738281 79.960938 -134.039062 C 66.097656 -74.414062 51.304688 -15.253906 38.363281 44.835938 C 31.890625 72.105469 27.734375 99.835938 23.574219 127.570312 C 22.1875 134.503906 23.109375 141.898438 24.496094 148.832031 C 24.960938 151.144531 28.65625 153.914062 31.429688 155.300781 C 33.277344 156.226562 36.515625 154.839844 38.363281 154.378906 C 41.136719 142.359375 42.984375 131.269531 45.757812 120.175781 C 67.945312 33.277344 90.59375 -54.078125 113.242188 -141.4375 C 114.628906 -146.519531 116.9375 -151.605469 119.25 -156.6875 C 166.859375 -167.320312 214.003906 -174.714844 261.609375 -179.335938 C 274.089844 -180.261719 287.03125 -180.261719 298.585938 -174.253906 C 305.984375 -170.554688 313.378906 -170.09375 323.546875 -175.175781 C 320.773438 -178.875 319.847656 -182.109375 318 -183.035156 Z M 318 -183.035156 "/></g></g></g><g fill="#00cb82" fill-opacity="1"><g transform="translate(368.018835, 543.937032)"><g><path d="M 226.945312 -222.785156 C 230.644531 -224.632812 234.339844 -226.019531 237.113281 -228.792969 C 259.300781 -253.753906 281.949219 -278.710938 303.671875 -305.058594 C 315.6875 -319.847656 324.007812 -336.949219 329.09375 -355.902344 C 337.875 -388.71875 324.933594 -410.90625 291.65625 -419.222656 C 288.882812 -420.148438 286.109375 -420.609375 283.335938 -420.609375 C 264.382812 -422.460938 245.433594 -421.996094 226.945312 -417.375 C 190.894531 -408.132812 157.613281 -392.878906 127.109375 -373.003906 C 89.667969 -348.507812 55.003906 -320.773438 22.648438 -290.269531 C 12.480469 -280.5625 2.773438 -270.394531 -5.546875 -258.835938 C -12.015625 -250.054688 -16.640625 -239.425781 -20.800781 -229.257812 C -26.347656 -213.542969 -23.109375 -197.824219 -12.015625 -185.347656 C -3.699219 -176.101562 6.007812 -167.320312 16.175781 -160.847656 C 30.507812 -151.605469 45.757812 -143.746094 61.011719 -137.277344 C 91.519531 -123.871094 122.484375 -112.316406 152.992188 -99.375 C 174.714844 -90.132812 196.902344 -80.425781 218.164062 -69.792969 C 229.257812 -63.785156 239.886719 -56.390625 249.132812 -48.070312 C 270.394531 -28.65625 274.554688 -3.234375 262.996094 23.109375 C 257.914062 35.128906 250.519531 42.0625 237.113281 45.296875 C 183.035156 57.777344 130.804688 77.1875 79.960938 99.835938 C 68.871094 104.921875 58.238281 110.007812 48.070312 116.015625 C 41.597656 120.175781 35.589844 125.722656 30.507812 131.269531 C 26.347656 135.890625 27.269531 142.824219 32.816406 146.058594 C 40.210938 149.757812 48.070312 153.453125 55.925781 153.914062 C 68.871094 155.300781 81.8125 155.765625 93.828125 153.453125 C 165.472656 140.050781 226.945312 107.695312 275.476562 53.617188 C 283.796875 44.371094 292.117188 36.976562 305.519531 34.664062 C 300.898438 33.277344 298.125 32.355469 293.964844 30.96875 C 295.351562 26.347656 296.738281 23.109375 298.125 19.875 C 312.453125 -14.789062 302.285156 -42.523438 276.863281 -62.859375 C 264.382812 -73.027344 250.519531 -82.273438 236.1875 -89.207031 C 211.230469 -101.6875 184.882812 -112.777344 159 -123.871094 C 134.503906 -134.503906 109.542969 -143.746094 85.507812 -155.300781 C 70.257812 -162.234375 55.003906 -171.019531 41.597656 -180.722656 C 19.875 -197.363281 15.714844 -218.625 29.121094 -242.199219 C 36.050781 -254.675781 44.835938 -265.769531 54.539062 -275.9375 C 86.433594 -309.21875 121.5625 -338.335938 159.460938 -364.222656 C 182.109375 -379.9375 206.609375 -392.417969 232.953125 -400.734375 C 242.199219 -403.507812 251.90625 -405.820312 261.609375 -406.746094 C 280.5625 -408.132812 293.042969 -396.578125 293.503906 -378.085938 C 293.964844 -370.230469 293.503906 -361.910156 290.730469 -354.976562 C 285.644531 -339.722656 280.097656 -324.472656 272.703125 -310.144531 C 263.460938 -292.578125 252.367188 -276.402344 242.660156 -259.300781 C 236.1875 -248.667969 230.179688 -237.574219 224.171875 -226.484375 C 225.097656 -225.097656 226.019531 -223.710938 226.945312 -222.785156 Z M 66.558594 137.277344 C 64.246094 133.117188 67.484375 130.804688 70.257812 128.957031 C 77.652344 123.410156 85.046875 117.863281 92.902344 113.703125 C 136.351562 90.132812 182.109375 71.640625 228.792969 56.390625 C 232.03125 55.464844 235.265625 54.539062 239.886719 53.617188 C 209.84375 98.914062 110.929688 146.058594 66.558594 137.277344 Z M 66.558594 137.277344 "/></g></g></g></svg>